<svg version="1.1" id="Layer_1" xmlns="http://www.w3.org/2000/svg" xmlns:xlink="http://www.w3.org/1999/xlink" x="0px"
	y="0px" viewBox="0 0 512 512" style="enable-background:new 0 0 512 512;" xml:space="preserve">
	<g>
		<g>
			<path d="M468.114,124.343v194.365l-43.886-5.851V168.229h-43.886v138.777l-65.829-8.777V92.426
			C314.514,39.231,256,7.314,256,7.314s-58.514,31.917-58.514,85.112V298.23l-65.829,8.777V168.229H87.771v144.628l-43.886,5.851
			V124.343H0V460.8h43.886v-43.886h147.819C195.932,471.912,256,504.686,256,504.686s60.069-32.774,64.295-87.771h147.819V460.8H512
			V124.343H468.114z M182.857,373.029H43.886v-10.045l148.939-19.858L182.857,373.029z M256.029,449.916
			c-8.973-8.631-17.907-20.114-20.146-33.002h40.24C273.9,429.836,265.005,441.297,256.029,449.916z M229.117,373.029l12.254-36.765
			V92.426c0-10.854,6.742-21.29,14.629-29.649c7.886,8.359,14.629,18.795,14.629,29.649v243.839l12.254,36.763H229.117z
			 M468.114,373.029H329.143l-9.968-29.904l148.939,19.858V373.029z" />
		</g>
	</g>
	<g>
	</g>
	<g>
	</g>
	<g>
	</g>
	<g>
	</g>
	<g>
	</g>
	<g>
	</g>
	<g>
	</g>
	<g>
	</g>
	<g>
	</g>
	<g>
	</g>
	<g>
	</g>
	<g>
	</g>
	<g>
	</g>
	<g>
	</g>
	<g>
	</g>
</svg>